<svg xmlns="http://www.w3.org/2000/svg" viewBox="0 0 1288.8 344.1">
  <path fill="#F4F4F4" stroke="#F4F4F4" stroke-width="2" stroke-miterlimit="10" d="M97.9,7.5h150.5c49.2,0,89.1,39.9,89.1,89.1v150.5c0,49.2-39.9,89.1-89.1,89.1H97.9c-49.2,0-89.1-39.9-89.1-89.1V96.6C8.8,47.4,48.7,7.5,97.9,7.5z"/>
  <text x="388.97229" y="304.44263" transform="scale(1.0240285,0.97653534)" style="font-style:italic;font-variant:normal;font-weight:bold;font-stretch:normal;font-size:362.014px;font-family:'Times New Roman';fill:#f7f7fe;fill-opacity:0.8975265;">Jesse</text>
  <path fill="#ffffff" fill-opacity="0.98939931" d="m 305.18725,50.819278 q 1.76531,0.441327 1.76531,2.206638 0,1.76531 -1.76531,1.76531 -2.64796,-0.441328 -4.8546,-0.441328 -1.76531,0 -3.08929,0 -3.53062,0 -5.73726,0.882655 -2.20664,0.441328 -4.41328,3.089293 -9.26787,11.915843 -19.85973,31.775581 -10.59187,19.418413 -20.7424,38.395493 -10.15053,18.53576 -20.30106,36.18886 -10.15054,17.21177 -20.7424,33.98222 -7.06124,11.47451 -17.21177,24.71434 -9.70921,12.79849 -18.53576,21.18372 -9.7092,9.26787 -20.74239,18.09442 -11.03319,9.26788 -24.27301,16.32912 -12.7985,7.06124 -27.803635,11.47452 -15.005136,4.41327 -33.540891,4.41327 -19.859739,0 -33.982219,-5.73725 -2.206638,-0.88266 -3.089293,-2.20664 -1.323982,-0.88266 -0.882655,-3.97195 0,-3.08929 0.441328,-8.82655 0,-5.29593 0.441327,-11.47452 l 3.089293,-0.88265 q 1.76531,11.47452 11.474515,19.41841 9.267878,8.38522 30.451599,8.38522 18.535755,0 33.982221,-6.61991 15.88779,-6.17858 33.09956,-23.39036 15.44646,-15.44646 30.89293,-37.95416 15.88779,-22.94903 32.65823,-51.194 7.50257,-12.79849 15.88779,-27.3623 8.38523,-15.00514 16.32912,-30.01027 7.9439,-15.005138 15.00514,-28.686291 7.06124,-14.12248 11.91584,-24.714341 0.44133,-0.882655 0.44133,-2.647965 0,-1.76531 -2.64797,-1.76531 -9.26788,0 -19.85974,1.323983 -10.59186,0.882655 -21.18372,3.089292 -10.59186,2.206638 -20.30106,5.29593 -9.70921,3.089293 -17.21178,7.061241 -7.50256,3.971947 -13.68115,12.35717 -5.73726,8.385223 -5.73726,18.535751 0,3.53062 0.88266,6.17859 0.88265,1.32398 -0.88266,1.32398 -2.20663,-1.32398 -4.8546,-5.29593 -2.20664,-3.97195 -2.20664,-12.357168 0,-7.06124 7.06124,-15.887791 7.06124,-9.267877 25.597,-15.446463 6.61991,-2.206637 15.44646,-3.971947 8.82655,-1.76531 22.50771,-3.089293 13.68115,-1.76531 33.09956,-2.647965 19.85974,-0.882655 47.66337,-0.882655 z" transform="matrix(0.97677884,-0.01157844,0.01213379,1.0236294,0,0)"/>
  <path fill="#610ec8" fill-opacity="0.98939931" d="M 76.573402,331.64147 C 45.257656,323.12079 18.453027,295.29638 12.105604,264.721 10.095695,255.03932 9.3504329,220.67965 9.906326,163.32517 L 10.747144,76.573402 17.86165,61.398537 C 26.921741,42.073844 43.417237,25.578348 62.74193,16.518257 L 77.916795,9.4037511 h 92.694115 c 66.75136,0 95.80196,0.9452419 103.79853,3.3773709 15.22384,4.630293 36.31884,20.800745 46.27682,35.473706 15.40899,22.704881 17.02447,36.063791 15.87294,131.257402 -1.22074,100.91464 -1.56618,102.53458 -27.3676,128.33598 -26.06045,26.06048 -27.17458,26.29195 -130.52033,27.11695 -70.80215,0.56519 -90.115966,-0.0635 -102.097868,-3.32369 z m 24.717358,-35.81733 c 53.81751,-18.51593 89.0215,-61.19632 148.43775,-179.962 27.3161,-54.601492 32.4016,-62.126419 41.98625,-62.126419 4.1496,0 8.41243,-1.403943 9.47293,-3.119869 2.68069,-4.337451 -74.74997,-0.960752 -99.18513,4.325397 -21.32077,4.612401 -38.09511,13.250633 -45.69889,23.533422 -6.34601,8.58188 -6.62986,25.331869 -0.5326,31.429119 3.66574,3.66575 4.0927,3.01464 4.0927,-6.24135 0,-26.122993 26.09573,-41.875652 80.25721,-48.447176 l 14.43095,-1.750936 -1.86658,7.524358 c -2.75821,11.11856 -49.10277,102.592434 -68.47108,135.146694 -22.79085,38.30688 -37.20943,58.03196 -53.65729,73.40495 -18.41673,17.21317 -34.229637,23.9688 -57.009649,24.35583 -20.504766,0.34834 -30.039821,-4.54731 -37.572013,-19.29088 -5.478669,-10.724 -7.764065,-8.44829 -7.764065,7.73114 0,11.47707 0.744056,13.03401 7.388662,15.46082 12.948788,4.72931 49.391499,3.63471 65.690845,-1.9731 z"/>
</svg>